<svg width="1928" height="217" viewBox="0 0 1928 217" fill="none" xmlns="http://www.w3.org/2000/svg">
<mask id="mask0_2050_2" style="mask-type:alpha" maskUnits="userSpaceOnUse" x="0" y="0" width="1928" height="217">
<rect width="1928" height="217" fill="#D9D9D9"/>
</mask>
<g mask="url(#mask0_2050_2)">
<path d="M282.782 130.69H298.932C299.725 136.697 302.105 141.967 306.072 146.5C310.038 151.033 315.252 154.547 321.712 157.04C328.285 159.42 335.822 160.61 344.322 160.61C357.128 160.61 367.272 158.457 374.752 154.15C382.345 149.73 386.142 143.78 386.142 136.3C386.142 130.52 383.762 126.1 379.002 123.04C374.355 119.98 366.195 117.77 354.522 116.41L329.872 113.35C314.345 111.537 303.182 107.853 296.382 102.3C289.582 96.6333 286.182 89.04 286.182 79.52C286.182 71.9267 288.448 65.3533 292.982 59.8C297.515 54.1333 303.862 49.8267 312.022 46.88C320.295 43.82 329.928 42.29 340.922 42.29C351.915 42.29 361.662 43.99 370.162 47.39C378.775 50.6767 385.575 55.3233 390.562 61.33C395.662 67.2233 398.438 74.1933 398.892 82.24H382.742C382.062 76.8 379.908 72.1533 376.282 68.3C372.655 64.3333 367.782 61.2733 361.662 59.12C355.655 56.8533 348.628 55.72 340.582 55.72C328.908 55.72 319.558 57.8167 312.532 62.01C305.618 66.09 302.162 71.8133 302.162 79.18C302.162 84.8467 304.428 89.21 308.962 92.27C313.608 95.2167 321.428 97.37 332.422 98.73L356.562 101.96C367.782 103.32 376.678 105.303 383.252 107.91C389.938 110.517 394.755 114.03 397.702 118.45C400.648 122.757 402.122 128.253 402.122 134.94C402.122 142.987 399.685 149.957 394.812 155.85C390.052 161.743 383.308 166.277 374.582 169.45C365.855 172.623 355.712 174.21 344.152 174.21C332.478 174.21 322.108 172.397 313.042 168.77C303.975 165.03 296.778 159.93 291.452 153.47C286.125 146.897 283.235 139.303 282.782 130.69ZM472.694 174.21C461.701 174.21 451.954 172.113 443.454 167.92C435.067 163.613 428.437 157.72 423.564 150.24C418.804 142.647 416.424 133.92 416.424 124.06C416.424 114.087 418.691 105.36 423.224 97.88C427.757 90.4 434.047 84.5633 442.094 80.37C450.141 76.1767 459.377 74.08 469.804 74.08C480.117 74.08 489.127 76.3467 496.834 80.88C504.541 85.4133 510.491 91.8167 514.684 100.09C518.991 108.25 521.144 117.77 521.144 128.65H428.324V116.24H514.514L505.334 121.85C504.994 114.71 503.294 108.533 500.234 103.32C497.174 98.1067 493.038 94.0833 487.824 91.25C482.611 88.4167 476.547 87 469.634 87C462.154 87 455.637 88.53 450.084 91.59C444.531 94.5367 440.167 98.73 436.994 104.17C433.934 109.61 432.404 116.013 432.404 123.38C432.404 131.087 434.161 137.773 437.674 143.44C441.187 149.107 446.117 153.47 452.464 156.53C458.811 159.59 466.291 161.12 474.904 161.12C482.724 161.12 490.374 159.817 497.854 157.21C505.447 154.603 512.247 151.033 518.254 146.5V158.74C512.361 163.5 505.334 167.297 497.174 170.13C489.014 172.85 480.854 174.21 472.694 174.21ZM536.153 76.29H551.793L557.233 108.76V172H541.593V106.55L536.153 76.29ZM593.783 74.08C602.057 74.08 609.083 75.8933 614.863 79.52C620.643 83.0333 625.063 88.19 628.123 94.99C631.183 101.677 632.713 109.78 632.713 119.3V172H617.073V122.02C617.073 110.573 614.693 101.96 609.933 96.18C605.173 90.2867 598.26 87.34 589.193 87.34C582.733 87.34 577.067 88.9267 572.193 92.1C567.433 95.2733 563.75 99.6933 561.143 105.36C558.537 110.913 557.233 117.43 557.233 124.91L550.943 120.49C551.737 110.97 554.003 102.753 557.743 95.84C561.597 88.9267 566.583 83.6 572.703 79.86C578.937 76.0067 585.963 74.08 593.783 74.08ZM669.093 74.08C677.367 74.08 684.393 75.8933 690.173 79.52C696.067 83.0333 700.543 88.19 703.603 94.99C706.663 101.677 708.193 109.78 708.193 119.3V172H692.553V122.02C692.553 110.573 690.173 101.96 685.413 96.18C680.653 90.2867 673.74 87.34 664.673 87.34C658.213 87.34 652.547 88.9267 647.673 92.1C642.913 95.2733 639.23 99.6933 636.623 105.36C634.017 110.913 632.713 117.43 632.713 124.91L626.423 120.49C627.217 110.97 629.483 102.753 633.223 95.84C637.077 88.9267 642.063 83.6 648.183 79.86C654.417 76.0067 661.387 74.08 669.093 74.08ZM823.105 172L819.705 135.79L823.955 124.06L819.705 112.5L823.105 76.29H839.085L834.665 124.06L839.085 172H823.105ZM829.225 124.06C826.732 134.033 822.879 142.817 817.665 150.41C812.565 157.89 806.332 163.727 798.965 167.92C791.712 172.113 783.665 174.21 774.825 174.21C765.419 174.21 757.089 172.113 749.835 167.92C742.582 163.613 736.859 157.72 732.665 150.24C728.585 142.647 726.545 133.92 726.545 124.06C726.545 114.087 728.585 105.36 732.665 97.88C736.859 90.4 742.582 84.5633 749.835 80.37C757.089 76.1767 765.419 74.08 774.825 74.08C783.665 74.08 791.712 76.1767 798.965 80.37C806.332 84.5633 812.622 90.4 817.835 97.88C823.049 105.36 826.845 114.087 829.225 124.06ZM742.525 124.06C742.525 131.313 743.999 137.717 746.945 143.27C750.005 148.823 754.142 153.187 759.355 156.36C764.682 159.42 770.689 160.95 777.375 160.95C784.175 160.95 790.409 159.42 796.075 156.36C801.855 153.187 806.955 148.823 811.375 143.27C815.909 137.717 819.592 131.313 822.425 124.06C819.592 116.807 815.909 110.403 811.375 104.85C806.955 99.2967 801.855 94.99 796.075 91.93C790.409 88.7567 784.175 87.17 777.375 87.17C770.689 87.17 764.682 88.7567 759.355 91.93C754.142 94.99 750.005 99.2967 746.945 104.85C743.999 110.403 742.525 116.807 742.525 124.06ZM858.058 76.29H873.698L879.138 108.76V172H863.498V106.55L858.058 76.29ZM918.748 74.08C927.701 74.08 935.294 75.8933 941.528 79.52C947.761 83.0333 952.521 88.19 955.808 94.99C959.094 101.677 960.738 109.78 960.738 119.3V172H945.098V122.02C945.098 110.573 942.434 101.96 937.108 96.18C931.894 90.2867 924.244 87.34 914.158 87.34C907.131 87.34 900.954 88.9267 895.628 92.1C890.414 95.2733 886.334 99.6933 883.388 105.36C880.554 110.913 879.138 117.43 879.138 124.91L872.848 120.49C873.641 110.97 876.078 102.753 880.158 95.84C884.238 88.9267 889.564 83.6 896.138 79.86C902.824 76.0067 910.361 74.08 918.748 74.08ZM970.935 88.87V81.39L992.015 77.48L998.305 51.47H1007.65V76.29H1054.23V88.87H1007.65V137.49C1007.65 146.103 1009.52 152.167 1013.26 155.68C1017.12 159.08 1023.01 160.78 1030.94 160.78C1036.16 160.78 1040.69 160.157 1044.54 158.91C1048.51 157.663 1052.36 155.85 1056.1 153.47V167.24C1053.38 168.94 1049.36 170.527 1044.03 172C1038.82 173.473 1033.38 174.21 1027.71 174.21C1019.1 174.21 1012.13 172.737 1006.8 169.79C1001.59 166.73 997.795 162.65 995.415 157.55C993.148 152.337 992.015 146.443 992.015 139.87V88.87H970.935ZM1072.99 75.95L1080.81 77.31L1088.63 75.95V172H1072.99V75.95ZM1080.64 61.84C1077.46 61.84 1074.74 60.8767 1072.48 58.95C1070.32 56.91 1069.25 54.4167 1069.25 51.47C1069.25 48.41 1070.32 45.9167 1072.48 43.99C1074.74 41.95 1077.46 40.93 1080.64 40.93C1084.04 40.93 1086.81 41.95 1088.97 43.99C1091.12 45.9167 1092.2 48.41 1092.2 51.47C1092.2 54.4167 1091.12 56.91 1088.97 58.95C1086.81 60.8767 1084.04 61.84 1080.64 61.84ZM1215.65 135.62C1214.4 143.213 1211.29 149.9 1206.3 155.68C1201.43 161.46 1195.19 165.993 1187.6 169.28C1180.01 172.567 1171.62 174.21 1162.44 174.21C1151.79 174.21 1142.38 172.113 1134.22 167.92C1126.06 163.613 1119.66 157.72 1115.01 150.24C1110.48 142.647 1108.21 133.92 1108.21 124.06C1108.21 114.2 1110.48 105.53 1115.01 98.05C1119.66 90.4567 1126.06 84.5633 1134.22 80.37C1142.38 76.1767 1151.79 74.08 1162.44 74.08C1171.62 74.08 1180.01 75.7233 1187.6 79.01C1195.19 82.1833 1201.43 86.66 1206.3 92.44C1211.29 98.22 1214.4 104.963 1215.65 112.67H1199.5C1197.8 104.737 1193.55 98.5033 1186.75 93.97C1180.06 89.3233 1171.96 87 1162.44 87C1154.73 87 1147.99 88.53 1142.21 91.59C1136.54 94.65 1132.12 98.9567 1128.95 104.51C1125.78 109.95 1124.19 116.467 1124.19 124.06C1124.19 131.653 1125.78 138.227 1128.95 143.78C1132.12 149.333 1136.54 153.64 1142.21 156.7C1147.99 159.647 1154.73 161.12 1162.44 161.12C1172.07 161.12 1180.23 158.797 1186.92 154.15C1193.72 149.503 1197.91 143.327 1199.5 135.62H1215.65ZM1228.41 130.69H1244.56C1245.35 136.697 1247.73 141.967 1251.7 146.5C1255.66 151.033 1260.88 154.547 1267.34 157.04C1273.91 159.42 1281.45 160.61 1289.95 160.61C1302.75 160.61 1312.9 158.457 1320.38 154.15C1327.97 149.73 1331.77 143.78 1331.77 136.3C1331.77 130.52 1329.39 126.1 1324.63 123.04C1319.98 119.98 1311.82 117.77 1300.15 116.41L1275.5 113.35C1259.97 111.537 1248.81 107.853 1242.01 102.3C1235.21 96.6333 1231.81 89.04 1231.81 79.52C1231.81 71.9267 1234.07 65.3533 1238.61 59.8C1243.14 54.1333 1249.49 49.8267 1257.65 46.88C1265.92 43.82 1275.55 42.29 1286.55 42.29C1297.54 42.29 1307.29 43.99 1315.79 47.39C1324.4 50.6767 1331.2 55.3233 1336.19 61.33C1341.29 67.2233 1344.06 74.1933 1344.52 82.24H1328.37C1327.69 76.8 1325.53 72.1533 1321.91 68.3C1318.28 64.3333 1313.41 61.2733 1307.29 59.12C1301.28 56.8533 1294.25 55.72 1286.21 55.72C1274.53 55.72 1265.18 57.8167 1258.16 62.01C1251.24 66.09 1247.79 71.8133 1247.79 79.18C1247.79 84.8467 1250.05 89.21 1254.59 92.27C1259.23 95.2167 1267.05 97.37 1278.05 98.73L1302.19 101.96C1313.41 103.32 1322.3 105.303 1328.88 107.91C1335.56 110.517 1340.38 114.03 1343.33 118.45C1346.27 122.757 1347.75 128.253 1347.75 134.94C1347.75 142.987 1345.31 149.957 1340.44 155.85C1335.68 161.743 1328.93 166.277 1320.21 169.45C1311.48 172.623 1301.34 174.21 1289.78 174.21C1278.1 174.21 1267.73 172.397 1258.67 168.77C1249.6 165.03 1242.4 159.93 1237.08 153.47C1231.75 146.897 1228.86 139.303 1228.41 130.69ZM1418.32 174.21C1407.33 174.21 1397.58 172.113 1389.08 167.92C1380.69 163.613 1374.06 157.72 1369.19 150.24C1364.43 142.647 1362.05 133.92 1362.05 124.06C1362.05 114.087 1364.32 105.36 1368.85 97.88C1373.38 90.4 1379.67 84.5633 1387.72 80.37C1395.77 76.1767 1405 74.08 1415.43 74.08C1425.74 74.08 1434.75 76.3467 1442.46 80.88C1450.17 85.4133 1456.12 91.8167 1460.31 100.09C1464.62 108.25 1466.77 117.77 1466.77 128.65H1373.95V116.24H1460.14L1450.96 121.85C1450.62 114.71 1448.92 108.533 1445.86 103.32C1442.8 98.1067 1438.66 94.0833 1433.45 91.25C1428.24 88.4167 1422.17 87 1415.26 87C1407.78 87 1401.26 88.53 1395.71 91.59C1390.16 94.5367 1385.79 98.73 1382.62 104.17C1379.56 109.61 1378.03 116.013 1378.03 123.38C1378.03 131.087 1379.79 137.773 1383.3 143.44C1386.81 149.107 1391.74 153.47 1398.09 156.53C1404.44 159.59 1411.92 161.12 1420.53 161.12C1428.35 161.12 1436 159.817 1443.48 157.21C1451.07 154.603 1457.87 151.033 1463.88 146.5V158.74C1457.99 163.5 1450.96 167.297 1442.8 170.13C1434.64 172.85 1426.48 174.21 1418.32 174.21ZM1577.15 172L1573.75 135.79L1578 124.06L1573.75 112.5L1577.15 76.29H1593.13L1588.71 124.06L1593.13 172H1577.15ZM1583.27 124.06C1580.77 134.033 1576.92 142.817 1571.71 150.41C1566.61 157.89 1560.37 163.727 1553.01 167.92C1545.75 172.113 1537.71 174.21 1528.87 174.21C1519.46 174.21 1511.13 172.113 1503.88 167.92C1496.62 163.613 1490.9 157.72 1486.71 150.24C1482.63 142.647 1480.59 133.92 1480.59 124.06C1480.59 114.087 1482.63 105.36 1486.71 97.88C1490.9 90.4 1496.62 84.5633 1503.88 80.37C1511.13 76.1767 1519.46 74.08 1528.87 74.08C1537.71 74.08 1545.75 76.1767 1553.01 80.37C1560.37 84.5633 1566.66 90.4 1571.88 97.88C1577.09 105.36 1580.89 114.087 1583.27 124.06ZM1496.57 124.06C1496.57 131.313 1498.04 137.717 1500.99 143.27C1504.05 148.823 1508.18 153.187 1513.4 156.36C1518.72 159.42 1524.73 160.95 1531.42 160.95C1538.22 160.95 1544.45 159.42 1550.12 156.36C1555.9 153.187 1561 148.823 1565.42 143.27C1569.95 137.717 1573.63 131.313 1576.47 124.06C1573.63 116.807 1569.95 110.403 1565.42 104.85C1561 99.2967 1555.9 94.99 1550.12 91.93C1544.45 88.7567 1538.22 87.17 1531.42 87.17C1524.73 87.17 1518.72 88.7567 1513.4 91.93C1508.18 94.99 1504.05 99.2967 1500.99 104.85C1498.04 110.403 1496.57 116.807 1496.57 124.06ZM1612.1 76.29H1627.74L1633.18 108.93V172H1617.54V106.04L1612.1 76.29ZM1684.01 75.95V90.06C1681.86 89.38 1679.31 88.87 1676.36 88.53C1673.53 88.19 1670.81 88.02 1668.2 88.02C1661.4 88.02 1655.34 89.55 1650.01 92.61C1644.68 95.67 1640.55 100.147 1637.6 106.04C1634.65 111.82 1633.18 118.677 1633.18 126.61L1628.76 120.49C1628.99 113.803 1630.06 107.627 1631.99 101.96C1633.92 96.2933 1636.64 91.42 1640.15 87.34C1643.78 83.1467 1648.08 79.9167 1653.07 77.65C1658.17 75.27 1663.89 74.08 1670.24 74.08C1672.62 74.08 1675.06 74.25 1677.55 74.59C1680.16 74.93 1682.31 75.3833 1684.01 75.95ZM1795.21 135.62C1793.97 143.213 1790.85 149.9 1785.86 155.68C1780.99 161.46 1774.76 165.993 1767.16 169.28C1759.57 172.567 1751.18 174.21 1742 174.21C1731.35 174.21 1721.94 172.113 1713.78 167.92C1705.62 163.613 1699.22 157.72 1694.57 150.24C1690.04 142.647 1687.77 133.92 1687.77 124.06C1687.77 114.2 1690.04 105.53 1694.57 98.05C1699.22 90.4567 1705.62 84.5633 1713.78 80.37C1721.94 76.1767 1731.35 74.08 1742 74.08C1751.18 74.08 1759.57 75.7233 1767.16 79.01C1774.76 82.1833 1780.99 86.66 1785.86 92.44C1790.85 98.22 1793.97 104.963 1795.21 112.67H1779.06C1777.36 104.737 1773.11 98.5033 1766.31 93.97C1759.63 89.3233 1751.52 87 1742 87C1734.3 87 1727.55 88.53 1721.77 91.59C1716.11 94.65 1711.69 98.9567 1708.51 104.51C1705.34 109.95 1703.75 116.467 1703.75 124.06C1703.75 131.653 1705.34 138.227 1708.51 143.78C1711.69 149.333 1716.11 153.64 1721.77 156.7C1727.55 159.647 1734.3 161.12 1742 161.12C1751.64 161.12 1759.8 158.797 1766.48 154.15C1773.28 149.503 1777.48 143.327 1779.06 135.62H1795.21ZM1813.75 41.1H1829.39V172H1813.75V41.1ZM1868.83 74.08C1877.78 74.08 1885.37 75.8933 1891.61 79.52C1897.84 83.0333 1902.6 88.19 1905.89 94.99C1909.17 101.677 1910.82 109.78 1910.82 119.3V172H1895.18V122.02C1895.18 110.573 1892.57 101.96 1887.36 96.18C1882.14 90.2867 1874.44 87.34 1864.24 87.34C1857.32 87.34 1851.2 88.9267 1845.88 92.1C1840.66 95.2733 1836.58 99.6933 1833.64 105.36C1830.8 110.913 1829.39 117.43 1829.39 124.91L1823.1 120.49C1823.89 110.97 1826.33 102.753 1830.41 95.84C1834.49 88.9267 1839.81 83.6 1846.39 79.86C1853.07 76.0067 1860.55 74.08 1868.83 74.08Z" fill="white"/>
<circle cx="182.333" cy="108" r="52" fill="#E31C18"/>
<circle cx="61" cy="108" r="52" fill="#AA223C"/>
</g>
</svg>
